# xmcd
#
# Track frame offsets:
#	150
#	8605
#	21686
#	32322
#	44886
#	56652
#	66888
#	79294
#	91000
#	102763
#	113473
#	127789
#	141561
#	154941
#	164784
#	179577
#	191019
#	200616
#	212470
#	226642
#	239623
#	251422
#	264211
#	277174
#
# Disc length: 3835 seconds
#
# Revision: 1
# Processed by: cddbd v1.5.2PL0 Copyright (c) Steve Scherf et al.
# Submitted via: audiograbber 1.83.01
#
DISCID=530ef918
DTITLE=Various Artist - Twenty-Four Gunfighter Ballads
DYEAR=2006
DGENRE=Country
TTITLE0=Marty Robbins - Its a Long Long Ride
TTITLE1=Tex Ritter - Blood on the Saddle
TTITLE2=Roy Rogers - The Streets of Laredo
TTITLE3=Jack Guthrie - Oklahoma Hills
TTITLE4=Frankie Lane - High Noon
TTITLE5=Tex Ritter - Billy the Kid
TTITLE6=Al Dexter - Pistol Packin Mama
TTITLE7=Gene Autry - Back in the Saddle Again
TTITLE8=Tennessee Ernie Ford - Shot-Gun Boogie
TTITLE9=Roy Rogers and Dale Evans - Cool Water
TTITLE10=Sons Of The Pioneers - Riders in the Sky
TTITLE11=T. Texas Tyler - Deck Of Cards
TTITLE12=Tex Ritter - Fort Worth Jail
TTITLE13=Jimmy Wakely - Birminham Jail
TTITLE14=Jimmie Rodgers - In The Jailhouse Now
TTITLE15=Cowboy Copas - Hangmans Boogie
TTITLE16=Johnny Bond - Red River Valley
TTITLE17=Foy Willing - The Old Chisholm Trail
TTITLE18=Tennessee Ernie Ford - Moon Over Montana
TTITLE19=Jimmy Wakely - Home On The Range
TTITLE20=Roy Rogers - Home On The Range
TTITLE21=Foy Willing - Bury Me Not On The Lone Prarie
TTITLE22=Jimmie Rodgers - Pistol Packin Papa
TTITLE23=Al Marino - The Man From Laramie
EXTD=
EXTT0=
EXTT1=
EXTT2=
EXTT3=
EXTT4=
EXTT5=
EXTT6=
EXTT7=
EXTT8=
EXTT9=
EXTT10=
EXTT11=
EXTT12=
EXTT13=
EXTT14=
EXTT15=
EXTT16=
EXTT17=
EXTT18=
EXTT19=
EXTT20=
EXTT21=
EXTT22=
EXTT23=
PLAYORDER=
